<?xml version="1.0" encoding="utf-8"?>
<!-- Generator: Adobe Illustrator 23.0.3, SVG Export Plug-In . SVG Version: 6.00 Build 0)  -->
<svg version="1.1" xmlns="http://www.w3.org/2000/svg" xmlns:xlink="http://www.w3.org/1999/xlink" x="0px" y="0px"
	 viewBox="0 0 119.96 76.56" style="enable-background:new 0 0 119.96 76.56;" xml:space="preserve">
<g id="BACKGROUND">
</g>
<g id="ELEMENTS">
	<g>
		<path d="M119.96,76.56H0V0h119.96V76.56z M1,75.56h117.96V1H1V75.56z"/>
		<path d="M119.1,62.62c-5.73-6.22-21.43-22.36-25.26-22.36c-2.7,0-4.59,2.08-6.1,3.75c-1.13,1.25-2.11,2.33-3.23,2.33
			c-1,0-2.1-1.32-4.12-3.84c-2.86-3.57-6.78-8.46-10.99-8.46c-4.36,0-7.99,3.52-10.63,6.09c-1.55,1.51-2.57,2.5-3.44,2.5
			c-0.8,0-1.99-1.25-5.47-5.14c-4.94-5.51-12.39-13.83-17.19-13.83c-7.25,0-31.54,26.24-31.78,26.51l-0.74-0.68
			c1.01-1.1,24.83-26.83,32.52-26.83c5.24,0,12.88,8.52,17.94,14.16c1.97,2.19,4.2,4.68,4.76,4.81c0.43,0,1.6-1.13,2.72-2.22
			c2.61-2.54,6.56-6.38,11.33-6.38c4.69,0,8.78,5.11,11.77,8.83c1.3,1.62,2.78,3.46,3.34,3.46c0.67,0,1.56-0.97,2.49-2
			c1.65-1.82,3.7-4.08,6.84-4.08c4.96,0,23.86,20.36,26,22.68L119.1,62.62z"/>
		<path d="M99.1,28.11c-2.35,0-5.65-2.53-6.37-3.11c-1.25-0.02-6.88-0.28-6.88-3.39c0-3.61,2.95-5.79,7.89-5.83
			c0.59-0.42,2.89-2,4.69-2c3.84,0,7.76,0.9,7.76,7.61C106.19,28.11,101.58,28.11,99.1,28.11z M93.91,16.78
			c-4.42,0-7.06,1.81-7.06,4.83c0,1.95,4.48,2.39,6.06,2.39h0.18l0.14,0.12c0.04,0.03,3.64,3,5.87,3c2.42,0,6.08,0,6.08-5.72
			c0-5.49-2.7-6.61-6.76-6.61c-1.41,0-3.52,1.37-4.22,1.9l-0.13,0.1H93.91z"/>
		<path d="M51.73,24.81c-3.84,0-7.76-0.9-7.76-7.61c0-6.72,4.61-6.72,7.08-6.72c2.35,0,5.65,2.53,6.37,3.11
			c1.25,0.02,6.88,0.28,6.88,3.39c0,3.61-2.95,5.79-7.89,5.83C55.83,23.23,53.52,24.81,51.73,24.81z M51.05,11.48
			c-2.42,0-6.08,0-6.08,5.72c0,5.49,2.7,6.61,6.76,6.61c1.41,0,3.52-1.37,4.22-1.9l0.13-0.1h0.17c4.42,0,7.06-1.81,7.06-4.83
			c0-1.95-4.48-2.39-6.06-2.39h-0.18l-0.14-0.12C56.89,14.44,53.29,11.48,51.05,11.48z"/>
	</g>
</g>
<g id="TEXT">
</g>
</svg>
