<?xml version="1.0" encoding="utf-8"?>
<!-- Generator: Adobe Illustrator 23.0.3, SVG Export Plug-In . SVG Version: 6.00 Build 0)  -->
<svg version="1.1" id="Capa_1" xmlns="http://www.w3.org/2000/svg" xmlns:xlink="http://www.w3.org/1999/xlink" x="0px" y="0px"
	 viewBox="0 0 412.86 133.38" style="enable-background:new 0 0 412.86 133.38;" xml:space="preserve">
<style type="text/css">
	.st0{fill:#FFFFFF;}
	.st1{fill:#CB282A;}
</style>
<g>
	<path class="st0" d="M55.25,52.13C61,56.74,64.71,62.97,66.4,70.82H48.78c-1.3-3.18-3.29-5.68-5.99-7.5
		c-2.69-1.82-5.89-2.73-9.59-2.73c-4.87,0-8.8,1.79-11.78,5.35c-2.99,3.57-4.48,8.34-4.48,14.31c0,5.97,1.49,10.73,4.48,14.26
		c2.98,3.54,6.91,5.31,11.78,5.31c3.7,0,6.9-0.91,9.59-2.73c2.69-1.82,4.69-4.28,5.99-7.4H66.4c-1.69,7.79-5.4,14-11.15,18.64
		c-5.74,4.64-13,6.96-21.76,6.96c-6.69,0-12.56-1.48-17.62-4.43c-5.06-2.95-8.97-7.09-11.73-12.41C1.38,93.15,0,87.08,0,80.27
		s1.38-12.88,4.14-18.21c2.76-5.32,6.67-9.46,11.73-12.41c5.06-2.95,10.94-4.43,17.62-4.43C42.25,45.22,49.51,47.52,55.25,52.13z"/>
	<path class="st0" d="M135.23,45.9v68.83h-16.75V86.01H92.39v28.72H75.74V45.9h16.65v26.68h26.09V45.9H135.23z"/>
	<path class="st0" d="M163.37,59.14v14.41h23.27v12.56h-23.27v15.29h26.19v13.34h-42.84V45.9h42.84v13.24H163.37z"/>
	<path class="st0" d="M260.14,114.73h-16.65l-27.84-42.25v42.25H199V45.9h16.65l27.84,42.64V45.9h16.65V114.73z"/>
	<path class="st1" d="M324.83,52.13c5.74,4.61,9.46,10.84,11.15,18.69h-17.62c-1.3-3.18-3.29-5.68-5.99-7.5
		c-2.69-1.82-5.89-2.73-9.59-2.73c-4.87,0-8.79,1.79-11.78,5.35c-2.99,3.57-4.48,8.34-4.48,14.31c0,5.97,1.49,10.73,4.48,14.26
		c2.99,3.54,6.91,5.31,11.78,5.31c3.7,0,6.9-0.91,9.59-2.73c2.69-1.82,4.69-4.28,5.99-7.4h17.62c-1.69,7.79-5.4,14-11.15,18.64
		c-5.74,4.64-13,6.96-21.76,6.96c-6.69,0-12.56-1.48-17.62-4.43c-5.06-2.95-8.97-7.09-11.73-12.41c-2.76-5.32-4.14-11.39-4.14-18.21
		s1.38-12.88,4.14-18.21c2.76-5.32,6.67-9.46,11.73-12.41c5.06-2.95,10.94-4.43,17.62-4.43C311.83,45.22,319.09,47.52,324.83,52.13z
		"/>
	<path class="st0" d="M395.77,49.36c5.29,3.02,9.46,7.2,12.51,12.56c3.05,5.35,4.58,11.41,4.58,18.16c0,6.75-1.54,12.82-4.63,18.21
		c-3.08,5.39-7.27,9.59-12.56,12.61c-5.29,3.02-11.15,4.53-17.57,4.53c-6.43,0-12.28-1.51-17.57-4.53
		c-5.29-3.02-9.48-7.22-12.56-12.61c-3.08-5.39-4.63-11.45-4.63-18.21c0-6.75,1.54-12.8,4.63-18.16c3.08-5.35,7.27-9.54,12.56-12.56
		c5.29-3.02,11.15-4.53,17.57-4.53C384.59,44.83,390.48,46.34,395.77,49.36z M365.1,65.62c-3.21,3.54-4.82,8.36-4.82,14.46
		c0,6.04,1.61,10.84,4.82,14.41c3.21,3.57,7.55,5.35,13,5.35c5.39,0,9.7-1.78,12.95-5.35c3.25-3.57,4.87-8.37,4.87-14.41
		s-1.61-10.84-4.82-14.41c-3.21-3.57-7.55-5.35-13-5.35C372.65,60.31,368.32,62.08,365.1,65.62z"/>
	<g>
		<g>
			<path class="st0" d="M266.86,1.64L280.45,0l10.37,86.09l32.79-40.37l19.34-2.33l-34.91,41.86l48.74,39.21l-20.04,2.41l-45.59-38
				l5.16,42.87l-13.59,1.64L266.86,1.64z"/>
		</g>
	</g>
</g>
</svg>
