<?xml version="1.0" encoding="utf-8"?>
<!-- Generator: Adobe Illustrator 23.0.3, SVG Export Plug-In . SVG Version: 6.00 Build 0)  -->
<svg version="1.1" xmlns="http://www.w3.org/2000/svg" xmlns:xlink="http://www.w3.org/1999/xlink" x="0px" y="0px"
	 viewBox="0 0 118.48 87.52" style="enable-background:new 0 0 118.48 87.52;" xml:space="preserve">
<g id="BACKGROUND">
</g>
<g id="ELEMENTS">
	<g>
		<path d="M59.24,87.52c-5.07,0-10-1-14.63-2.96H4.26C1.91,84.56,0,82.65,0,80.3V11.9c0-2.35,1.91-4.26,4.26-4.26h42.3
			c2.35,0,4.26,1.91,4.26,4.26c0,0.49,0.12,0.98,0.34,1.43c7.46-1.64,15.14-0.97,22.1,1.83h40.96c2.35,0,4.26,1.91,4.26,4.26V80.3
			c0,2.35-1.91,4.26-4.26,4.26H73.87C69.24,86.52,64.31,87.52,59.24,87.52z M4.26,8.64C2.46,8.64,1,10.1,1,11.9v68.4
			c0,1.8,1.46,3.26,3.26,3.26h40.55l0.09,0.04c4.54,1.94,9.37,2.92,14.34,2.92s9.79-0.98,14.34-2.92l0.2-0.04h40.45
			c1.8,0,3.26-1.46,3.26-3.26V19.42c0-1.8-1.46-3.26-3.26-3.26H73.06l-0.09-0.04c-4.38-1.78-9-2.68-13.73-2.68
			c-2.74,0-5.51,0.32-8.22,0.94l-0.35,0.08l-0.19-0.3c-0.43-0.69-0.66-1.47-0.66-2.26c0-1.8-1.46-3.26-3.26-3.26H4.26z"/>
		<path d="M59.24,87.52c-20.7,0-37.54-16.84-37.54-37.54c0-20.7,16.84-37.54,37.54-37.54s37.54,16.84,37.54,37.54
			C96.78,70.68,79.94,87.52,59.24,87.52z M59.24,13.44c-20.15,0-36.54,16.39-36.54,36.54c0,20.15,16.39,36.54,36.54,36.54
			s36.54-16.39,36.54-36.54C95.78,29.83,79.39,13.44,59.24,13.44z"/>
		<path d="M59.24,72.26c-12.28,0-22.28-9.99-22.28-22.28c0-12.28,9.99-22.28,22.28-22.28s22.28,9.99,22.28,22.28
			C81.52,62.27,71.52,72.26,59.24,72.26z M59.24,28.7c-11.73,0-21.28,9.54-21.28,21.28s9.54,21.28,21.28,21.28
			s21.28-9.55,21.28-21.28S70.97,28.7,59.24,28.7z"/>
		<path d="M33.89,8.64H14.52V3.02c0-1.66,1.35-3.02,3.02-3.02h13.33c1.66,0,3.02,1.35,3.02,3.02V8.64z M15.52,7.64h17.37V3.02
			c0-1.11-0.91-2.02-2.02-2.02H17.54c-1.11,0-2.02,0.91-2.02,2.02V7.64z"/>
	</g>
</g>
<g id="TEXT">
</g>
</svg>
