<?xml version="1.0" encoding="utf-8"?>
<!-- Generator: Adobe Illustrator 23.0.3, SVG Export Plug-In . SVG Version: 6.00 Build 0)  -->
<svg version="1.1" id="Capa_1" xmlns="http://www.w3.org/2000/svg" xmlns:xlink="http://www.w3.org/1999/xlink" x="0px" y="0px"
	 viewBox="0 0 411.8 421.2" style="enable-background:new 0 0 411.8 421.2;" xml:space="preserve">
<style type="text/css">
	.st0{fill:#FFFFFF;}
	.st1{enable-background:new    ;}
</style>
<g>
	<g>
		<path class="st0" d="M81,254.2c2.4,0.2,4.5,1.5,6.4,3.1c37.6,30.5,75.3,61,112.8,91.6c4.1,3.3,6.6,3.6,10.9,0.1
			c37.5-30.7,75.2-61.1,112.8-91.6c0.5-0.4,1-0.9,1.6-1.2c4.1-2.8,8.7-2.5,11.3,0.7c2.7,3.3,2.3,7.7-1.6,11.1
			c-6.8,5.8-13.9,11.4-20.9,17c-33.8,27.3-67.6,54.6-101.4,81.9c-5.8,4.7-8.3,4.7-14,0.1c-40.3-32.5-80.6-65-120.9-97.6
			c-2.5-2-4.8-4.2-4.9-7.8C72.9,257.6,76.5,254.1,81,254.2z"/>
		<path class="st0" d="M338.6,312c-0.3,3.9-2.7,6-5.1,8c-16.4,13.3-32.9,26.7-49.3,40c-23.8,19.3-47.7,38.6-71.5,57.9
			c-5.3,4.3-8.3,4.5-13.3,0.4c-40.4-32.7-80.8-65.4-121.2-98.2c-0.9-0.7-1.8-1.5-2.6-2.3c-3.3-3.5-3.6-7.1-0.8-10.2
			c3.1-3.4,6.8-3.6,10.3-1.1c4,2.8,7.6,6,11.3,9c35.5,28.7,71,57.4,106.4,86.2c2.4,1.9,3.8,1.6,5.9-0.2
			c22.9-18.6,45.8-37.2,68.7-55.7c15.8-12.8,31.5-25.6,47.4-38.3c5.3-4.2,11.2-2.9,13.1,2.5C338.4,310.7,338.5,311.5,338.6,312z"/>
	</g>
	<g class="st1">
		<path class="st0" d="M15.4,83.5c-5-1.5-9-3.6-11.9-6.1L8,67.3c2.9,2.3,6.4,4.1,10.5,5.5C22.7,74.3,26.8,75,31,75
			c5.2,0,9.1-0.8,11.6-2.5c2.6-1.7,3.8-3.9,3.8-6.6c0-2-0.7-3.6-2.1-4.9c-1.4-1.3-3.2-2.3-5.4-3c-2.2-0.7-5.2-1.6-9-2.5
			c-5.3-1.3-9.6-2.5-12.9-3.8c-3.3-1.3-6.1-3.2-8.5-5.9C6.2,43.1,5,39.4,5,34.8c0-3.9,1-7.4,3.1-10.5c2.1-3.2,5.3-5.7,9.5-7.5
			C21.8,14.9,27,14,33.1,14c4.3,0,8.4,0.5,12.6,1.6c4.1,1.1,7.7,2.6,10.7,4.6l-4.1,10.1c-3.1-1.8-6.3-3.2-9.6-4.1
			c-3.3-0.9-6.6-1.4-9.7-1.4c-5.1,0-8.9,0.9-11.4,2.6c-2.5,1.7-3.7,4-3.7,6.9c0,2,0.7,3.6,2.1,4.9c1.4,1.3,3.2,2.3,5.4,3
			c2.2,0.7,5.2,1.6,9,2.5c5.2,1.2,9.4,2.4,12.8,3.7c3.3,1.3,6.2,3.3,8.5,5.9c2.4,2.7,3.5,6.3,3.5,10.8c0,3.9-1,7.4-3.1,10.5
			c-2.1,3.1-5.3,5.6-9.5,7.5c-4.3,1.9-9.4,2.8-15.6,2.8C25.6,85.8,20.4,85,15.4,83.5z"/>
		<path class="st0" d="M85.4,81.2c-5.7-3.1-10.1-7.4-13.4-12.8c-3.2-5.5-4.8-11.6-4.8-18.5c0-6.9,1.6-13,4.9-18.5
			c3.3-5.5,7.7-9.7,13.4-12.8c5.7-3.1,12.1-4.6,19.1-4.6c5.7,0,10.9,1,15.7,3c4.7,2,8.7,4.9,12,8.7l-8.4,7.9
			c-5.1-5.5-11.3-8.2-18.7-8.2c-4.8,0-9.1,1-12.9,3.1c-3.8,2.1-6.8,5-8.9,8.7c-2.1,3.7-3.2,8-3.2,12.7c0,4.7,1.1,8.9,3.2,12.7
			c2.1,3.7,5.1,6.6,8.9,8.7c3.8,2.1,8.1,3.1,12.9,3.1c7.4,0,13.6-2.8,18.7-8.3l8.4,8c-3.3,3.8-7.3,6.7-12,8.7c-4.8,2-10,3-15.7,3
			C97.4,85.8,91,84.3,85.4,81.2z"/>
		<path class="st0" d="M190.4,84.8l-14.3-20.5c-0.6,0.1-1.5,0.1-2.7,0.1h-15.8v20.4h-13V15h28.7c6.1,0,11.3,1,15.8,3
			c4.5,2,7.9,4.9,10.3,8.6c2.4,3.7,3.6,8.1,3.6,13.3c0,5.3-1.3,9.8-3.8,13.6c-2.6,3.8-6.2,6.6-11,8.5l16.1,22.9H190.4z M185.7,29.5
			c-2.9-2.4-7.2-3.6-12.9-3.6h-15.2v27.8h15.2c5.7,0,9.9-1.2,12.9-3.6c2.9-2.4,4.4-5.9,4.4-10.3C190.1,35.4,188.6,31.9,185.7,29.5z"
			/>
		<path class="st0" d="M231,81.2c-5.7-3.1-10.2-7.4-13.5-12.9c-3.3-5.5-4.9-11.6-4.9-18.4s1.6-12.9,4.9-18.4
			c3.3-5.5,7.7-9.8,13.5-12.9c5.7-3.1,12.1-4.6,19.3-4.6s13.5,1.5,19.3,4.6c5.7,3.1,10.2,7.4,13.5,12.8c3.3,5.5,4.9,11.6,4.9,18.5
			c0,6.9-1.6,13-4.9,18.5c-3.3,5.5-7.7,9.7-13.5,12.8c-5.7,3.1-12.1,4.6-19.3,4.6S236.7,84.3,231,81.2z M262.8,71.3
			c3.7-2.1,6.7-5,8.8-8.8c2.1-3.8,3.2-8,3.2-12.6c0-4.7-1.1-8.9-3.2-12.6c-2.1-3.8-5.1-6.7-8.8-8.8c-3.7-2.1-7.9-3.1-12.6-3.1
			s-8.8,1-12.6,3.1c-3.7,2.1-6.7,5-8.8,8.8c-2.1,3.8-3.2,8-3.2,12.6c0,4.7,1.1,8.9,3.2,12.6c2.1,3.8,5.1,6.7,8.8,8.8
			c3.7,2.1,7.9,3.1,12.6,3.1S259.1,73.4,262.8,71.3z"/>
		<path class="st0" d="M301.6,15h13v58.9h36.5v11h-49.5V15z"/>
		<path class="st0" d="M361.4,15h13v58.9h36.5v11h-49.5V15z"/>
	</g>
	<g class="st1">
		<path class="st0" d="M34.6,134.7h30.5c7.4,0,14.1,1.4,19.9,4.3s10.3,7,13.5,12.3s4.8,11.4,4.8,18.3c0,6.9-1.6,13-4.8,18.3
			c-3.2,5.3-7.7,9.4-13.5,12.3s-12.4,4.3-19.9,4.3H34.6V134.7z M64.5,193.6c5.1,0,9.6-1,13.5-2.9c3.9-2,6.9-4.8,9-8.4
			c2.1-3.6,3.1-7.8,3.1-12.6s-1-9-3.1-12.6c-2.1-3.6-5.1-6.4-9-8.4c-3.9-2-8.4-2.9-13.5-2.9h-17v47.9H64.5z"/>
		<path class="st0" d="M130.4,200.9c-5.7-3.1-10.2-7.4-13.5-12.9c-3.3-5.5-4.9-11.6-4.9-18.4s1.6-12.9,4.9-18.4
			c3.3-5.5,7.7-9.8,13.5-12.9c5.7-3.1,12.1-4.6,19.3-4.6c7.1,0,13.5,1.5,19.3,4.6c5.7,3.1,10.2,7.4,13.5,12.8
			c3.3,5.5,4.9,11.6,4.9,18.5c0,6.9-1.6,13-4.9,18.5c-3.3,5.5-7.7,9.7-13.5,12.8c-5.7,3.1-12.1,4.6-19.3,4.6
			C142.5,205.5,136.1,204,130.4,200.9z M162.2,191c3.7-2.1,6.7-5,8.8-8.8c2.1-3.8,3.2-8,3.2-12.6c0-4.7-1.1-8.9-3.2-12.6
			c-2.1-3.8-5.1-6.7-8.8-8.8c-3.7-2.1-7.9-3.1-12.6-3.1c-4.7,0-8.8,1-12.6,3.1c-3.7,2.1-6.7,5-8.8,8.8c-2.1,3.8-3.2,8-3.2,12.6
			c0,4.7,1.1,8.9,3.2,12.6c2.1,3.8,5.1,6.7,8.8,8.8c3.7,2.1,7.9,3.1,12.6,3.1C154.3,194.2,158.5,193.1,162.2,191z"/>
		<path class="st0" d="M300.9,134.7l-23.1,69.8H264l-17.3-51.7l-17.6,51.7h-13.9l-23.1-69.8h13.5l17.4,53.1l18.1-53.1h12l17.7,53.4
			l17.9-53.4H300.9z"/>
		<path class="st0" d="M373.5,134.7v69.8h-10.7l-38.5-47.3v47.3h-12.9v-69.8h10.7l38.5,47.3v-47.3H373.5z"/>
	</g>
</g>
</svg>
